<svg width="41" height="40" viewBox="0 0 41 40" fill="none" xmlns="http://www.w3.org/2000/svg">
<g opacity="0.4">
<rect width="40" height="40" transform="translate(0.5)" fill="#F7F7F7"/>
<path d="M22.7213 9.96462C21.956 9.22806 21.5 8.1922 21.5 7.0379C21.5 4.81131 24.844 1.57487 25.4173 1.03611C25.468 0.987963 25.5333 0.987963 25.584 1.03611C26.156 1.57487 29.5 4.81131 29.5 7.0379C29.5 8.19089 29.044 9.22676 28.2787 9.96462C28.2213 10.0193 28.124 10.0076 28.076 9.9438C26.9307 8.40431 25.5 7.46605 25.5 7.46605C25.5 7.46605 24.0693 8.40431 22.924 9.9438C22.8773 10.0076 22.7787 10.0206 22.7213 9.96462Z" fill="#E14503"/>
<path d="M11.1644 33.0195L3.5 37V23.9879L7.89085 22.0547C8.24434 21.8985 8.65717 22.0906 8.75817 22.4574L11.4775 32.3094C11.5558 32.5895 11.4245 32.8845 11.1644 33.0195Z" fill="#E14503"/>
<path d="M36.4949 24.6417L25.9685 30.292C24.8091 30.9145 23.4505 31.0654 22.182 30.712L16.575 29.1526L12.7542 31L10.5 22.7478L14.2511 20.8992C15.4435 20.3081 16.7577 20 18.0909 20H25.9317C26.9694 20 27.8713 20.8602 27.8713 21.9228C27.8713 22.8949 27.0785 23.7576 26.0954 23.8369L23.1701 24.0745C22.6754 24.1135 22.2949 24.5222 22.2949 25.0139V25.0165C22.2949 25.5685 22.7706 26.0024 23.3249 25.9559L26.2476 25.7157C27.8789 25.5849 29.202 24.4204 29.6206 22.9138L35.2682 21.3745C37.3359 20.8124 38.423 23.73 36.4949 24.6417Z" fill="#E14503"/>
<path d="M15.5013 11.6259C15.6579 13.937 16.6787 16.0206 18.2506 17.5968H25.3335C26.9743 17.5968 28.3633 18.6033 28.8906 20C32.5567 18.7386 35.2358 15.5012 35.4988 11.6271C35.5213 11.2872 35.222 11 34.865 11H16.1338C15.7781 11 15.4775 11.286 15.5013 11.6259ZM20.49 15.7872C19.7987 15.7872 19.2375 15.2511 19.2375 14.5904C19.2375 13.9298 19.7987 13.3936 20.49 13.3936C21.1814 13.3936 21.7426 13.9298 21.7426 14.5904C21.7426 15.2511 21.1814 15.7872 20.49 15.7872ZM25.5001 15.7872C24.8087 15.7872 24.2476 15.2511 24.2476 14.5904C24.2476 13.9298 24.8087 13.3936 25.5001 13.3936C26.1914 13.3936 26.7526 13.9298 26.7526 14.5904C26.7526 15.2511 26.1914 15.7872 25.5001 15.7872ZM30.5101 15.7872C29.8187 15.7872 29.2576 15.2511 29.2576 14.5904C29.2576 13.9298 29.8187 13.3936 30.5101 13.3936C31.2015 13.3936 31.7626 13.9298 31.7626 14.5904C31.7626 15.2511 31.2015 15.7872 30.5101 15.7872Z" fill="#E14503"/>
</g>
</svg>
