<svg width="41" height="40" viewBox="0 0 41 40" fill="none" xmlns="http://www.w3.org/2000/svg">
<g opacity="0.4" clip-path="url(#clip0_795_258)">
<rect width="40" height="40" transform="translate(0.5)" fill="#F7F7F7"/>
<path d="M15.4877 25.6756L14.8844 29.4099C14.8022 29.9205 15.0032 30.435 15.4042 30.7396C15.8059 31.0437 16.3393 31.0844 16.7782 30.8447L19.9998 29.0921L23.2215 30.845C23.4121 30.9481 23.621 31 23.8277 31C24.0983 31 24.3683 30.9117 24.5961 30.74C24.9975 30.4353 25.1991 29.9208 25.1162 29.4103L24.5136 25.6759L27.1077 23.0241C27.4624 22.662 27.5888 22.1215 27.4366 21.6297C27.2838 21.1382 26.8748 20.7784 26.384 20.7029L22.7893 20.1474L21.1703 16.7561C20.9507 16.2932 20.4957 16 19.9995 16C19.5043 16 19.0497 16.2932 18.8282 16.7561L17.2107 20.1474L13.616 20.7025C13.1242 20.7781 12.7172 21.1379 12.5641 21.6294C12.4109 22.1212 12.537 22.6623 12.8923 23.0238L15.4877 25.6756Z" fill="#E14503"/>
<path d="M35.5654 4.25241H31.4182V1.92991C31.4182 0.864006 30.5624 0 29.5063 0H29.2031C28.1474 0 27.2919 0.864006 27.2919 1.92991V4.25241H12.6592V1.92991C12.6592 0.864006 11.8034 0 10.748 0H10.4445C9.38873 0 8.53325 0.864006 8.53325 1.92991V4.25241H4.43425C2.26524 4.25241 0.5 6.03394 0.5 8.2244V36.028C0.5 38.2172 2.26524 40 4.43425 40H35.5658C37.7344 40 39.5 38.2175 39.5 36.028V8.2244C39.4997 6.03394 37.7341 4.25241 35.5654 4.25241ZM35.0521 35.5098H4.94754V13.8664H35.0521V35.5098Z" fill="#E14503"/>
</g>
<defs>
<clipPath id="clip0_795_258">
<rect width="40" height="40" fill="white" transform="translate(0.5)"/>
</clipPath>
</defs>
</svg>
