<svg width="40" height="40" viewBox="0 0 40 40" fill="none" xmlns="http://www.w3.org/2000/svg">
<path d="M30.2049 22.7958C32.301 22.7958 34 24.4573 34 26.5072V28.0228C34 28.9691 33.6976 29.8916 33.135 30.6615C30.5262 34.2314 26.2663 36 20.4945 36C14.7214 36 10.4637 34.2307 7.86126 30.6588C7.30106 29.8899 7 28.9694 7 28.0253V26.5072C7 24.4573 8.69911 22.7958 10.7951 22.7958H30.2049ZM20.4945 3C25.1545 3 28.9323 6.69432 28.9323 11.2515C28.9323 15.8087 25.1545 19.503 20.4945 19.503C15.8344 19.503 12.0567 15.8087 12.0567 11.2515C12.0567 6.69432 15.8344 3 20.4945 3Z" fill="white"/>
</svg>
