<svg width="41" height="40" viewBox="0 0 41 40" fill="none" xmlns="http://www.w3.org/2000/svg">
<g opacity="0.4">
<rect width="40" height="40" transform="translate(0.5)" fill="#F7F7F7"/>
<path d="M29.8571 5C30.6996 5 31.394 5.6434 31.489 6.4723L31.5 6.66667V33.3333C31.5 34.2538 30.7645 35 29.8571 35C29.0147 35 28.3203 34.3567 28.2253 33.5277L28.2143 33.3333V25H26.5714C25.729 25 25.0345 24.3567 24.9396 23.5277L24.9286 23.3333V13.3333C24.9286 9.65143 27.3929 5 29.8571 5ZM20 5C20.8425 5 21.5369 5.6434 21.6319 6.4723L21.6429 6.66667V15C21.6429 18.106 19.5492 20.7158 16.7156 21.4563L16.7143 33.3333C16.7143 34.2538 15.9787 35 15.0714 35C14.2289 35 13.5345 34.3567 13.4396 33.5277L13.4286 33.3333L13.429 21.4567C10.6994 20.7442 8.65615 18.2973 8.50854 15.3431L8.5 15V6.66667C8.5 5.7462 9.23554 5 10.1429 5C10.9854 5 11.6798 5.6434 11.7747 6.4723L11.7857 6.66667V15C11.7857 16.2337 12.4464 17.311 13.4285 17.8873L13.4286 6.66667C13.4286 5.7462 14.1641 5 15.0714 5C15.914 5 16.6083 5.6434 16.7032 6.4723L16.7143 6.66667L16.7161 17.8863C17.6216 17.3542 18.2536 16.3958 18.3456 15.2816L18.3571 15V6.66667C18.3571 5.7462 19.0927 5 20 5Z" fill="#E14503"/>
</g>
</svg>
