<svg width="41" height="40" viewBox="0 0 41 40" fill="none" xmlns="http://www.w3.org/2000/svg">
<rect width="40" height="40" transform="translate(0.5)" fill="white"/>
<path d="M21.7353 4.2373C21.7353 3.55396 21.1822 3 20.5 3C19.8178 3 19.2647 3.55396 19.2647 4.2373V6.3049H15.9706C14.3787 6.3049 13.0882 7.59746 13.0882 9.19192V12.7461C15.5908 12.5189 18.0294 14.4555 18.0294 17.2723V34.7627C18.0294 34.8058 18.0284 34.8487 18.0266 34.8914V36H22.9678V33.9378H22.9706V21.5649C22.9706 19.0593 24.9984 17.0281 27.5 17.0281H27.9118V9.19192C27.9118 7.59746 26.6213 6.3049 25.0294 6.3049H21.7353V4.2373ZM24.6148 36H31.6176C33.2095 36 34.5 34.7074 34.5 33.113V21.5649C34.5 19.9704 33.2095 18.6779 31.6176 18.6779H27.5C25.9081 18.6779 24.6176 19.9704 24.6176 21.5649V33.9378H24.6148V36ZM16.3824 33.9378H16.3795V34.8468L16.3794 34.8491V36H15.156H15.1471H9.38235C7.79047 36 6.5 34.7074 6.5 33.113V19.9805C6.5 19.0081 6.98875 18.1011 7.80027 17.5673L11.9179 14.8591C13.8347 13.5985 16.3824 14.9756 16.3824 17.2723V33.9378Z" fill="#E14503"/>
</svg>
