<svg width="41" height="40" viewBox="0 0 41 40" fill="none" xmlns="http://www.w3.org/2000/svg">
<g opacity="0.4">
<rect width="40" height="40" transform="translate(0.5)" fill="#F7F7F7"/>
<path d="M25.775 3H19.5875C18.9041 3 18.35 3.55405 18.35 4.2375V9.71697C12.7527 10.5176 8.45 15.3313 8.45 21.15H7.2125C5.16214 21.15 3.5 22.8122 3.5 24.8625V34.7625C3.5 35.4459 4.05405 36 4.7375 36H16.7C16.9279 36 17.1125 35.8154 17.1125 35.5875V30.6375C17.1125 30.1819 17.4819 29.8125 17.9375 29.8125H22.0625C22.5181 29.8125 22.8875 30.1819 22.8875 30.6375V35.5875C22.8875 35.8154 23.0721 36 23.3 36H35.2625C35.9459 36 36.5 35.4459 36.5 34.7625V24.8625C36.5 22.8122 34.8378 21.15 32.7875 21.15H31.55C31.55 15.0485 26.8188 10.052 20.825 9.62901V7.95H25.775C26.2306 7.95 26.6 7.58063 26.6 7.125V3.825C26.6 3.36937 26.2306 3 25.775 3ZM25.775 19.0875V22.3875C25.775 23.0709 25.2209 23.625 24.5375 23.625C23.8541 23.625 23.3 23.0709 23.3 22.3875V19.0875C23.3 18.4041 23.8541 17.85 24.5375 17.85C25.2209 17.85 25.775 18.4041 25.775 19.0875ZM19.5875 17.85C20.2709 17.85 20.825 18.4041 20.825 19.0875V22.3875C20.825 23.0709 20.2709 23.625 19.5875 23.625C18.9041 23.625 18.35 23.0709 18.35 22.3875V19.0875C18.35 18.4041 18.9041 17.85 19.5875 17.85ZM15.875 19.0875V22.3875C15.875 23.0709 15.3209 23.625 14.6375 23.625C13.9541 23.625 13.4 23.0709 13.4 22.3875V19.0875C13.4 18.4041 13.9541 17.85 14.6375 17.85C15.3209 17.85 15.875 18.4041 15.875 19.0875ZM9.6875 25.275C10.3709 25.275 10.925 25.8291 10.925 26.5125V30.6375C10.925 31.3209 10.3709 31.875 9.6875 31.875C9.00405 31.875 8.45 31.3209 8.45 30.6375V26.5125C8.45 25.8291 9.00405 25.275 9.6875 25.275ZM31.55 26.5125V30.6375C31.55 31.3209 30.9959 31.875 30.3125 31.875C29.6291 31.875 29.075 31.3209 29.075 30.6375V26.5125C29.075 25.8291 29.6291 25.275 30.3125 25.275C30.9959 25.275 31.55 25.8291 31.55 26.5125Z" fill="#E14503"/>
</g>
</svg>
