<svg width="41" height="40" viewBox="0 0 41 40" fill="none" xmlns="http://www.w3.org/2000/svg">
<g opacity="0.4">
<rect width="40" height="40" transform="translate(0.5)" fill="#F7F7F7"/>
<path d="M16.8442 4.30917C18.6034 2.56361 21.3966 2.56361 23.1558 4.30917L34.8672 15.929C35.9108 16.9647 36.5 18.3898 36.5 19.8787V31.1945C36.5 33.2961 34.8378 35 32.7875 35H31.0321L30.939 34.9772C30.787 34.9396 30.5628 34.8836 30.2767 34.8104C29.7045 34.6636 28.8852 34.4476 27.9015 34.1719C25.9314 33.6194 23.3132 32.83 20.7021 31.8783C18.0777 30.9217 15.5194 29.8219 13.638 28.6617C12.695 28.08 11.9787 27.5171 11.5118 26.9935C11.038 26.4622 10.925 26.0913 10.925 25.8669C10.925 25.339 11.2543 24.7726 12.6096 24.1991C13.9293 23.6406 15.7649 23.2879 17.7857 22.9656C18.1624 22.9055 18.546 22.8465 18.932 22.7869C20.5414 22.5392 22.19 22.2855 23.5358 21.9269C24.3743 21.7035 25.1893 21.4171 25.8507 21.0124C26.5117 20.6082 27.1626 19.9949 27.388 19.0709C27.6425 18.028 27.2381 17.1241 26.7104 16.4551C26.1944 15.8009 25.4542 15.2238 24.6763 14.7105C23.561 13.9748 22.1371 13.2278 20.7437 12.4969C20.2071 12.2154 19.6748 11.9362 19.1666 11.661C17.2349 10.615 15.649 9.62746 14.8064 8.6434C14.403 8.17231 14.2679 7.8122 14.2522 7.54409C14.2381 7.30305 14.308 6.93204 14.7556 6.39204C14.7688 6.37604 14.7816 6.35981 14.794 6.34335L16.8442 4.30917ZM12.1052 9.0112L5.13291 15.929C4.08923 16.9647 3.5 18.3898 3.5 19.8787V31.1945C3.5 33.2961 5.16214 35 7.2125 35H21.9663C21.2769 34.7688 20.5752 34.5246 19.8728 34.2687C17.1971 33.2933 14.4556 32.1267 12.362 30.8354C11.3175 30.1913 10.3776 29.4818 9.68504 28.7053C8.9995 27.9366 8.45 26.9796 8.45 25.8669C8.45 23.7204 10.0692 22.5294 11.6651 21.854C13.2965 21.1638 15.4149 20.7761 17.405 20.4588C17.8204 20.3925 18.2305 20.3293 18.633 20.2672C20.2298 20.0208 21.7066 19.7929 22.9132 19.4714C23.6643 19.2713 24.2169 19.0575 24.5824 18.8338C24.9485 18.6098 24.9842 18.4667 24.987 18.4556C24.9904 18.4412 24.9941 18.4251 24.9802 18.3795C24.9622 18.3209 24.9129 18.2113 24.7857 18.0502C24.5198 17.7131 24.0441 17.3107 23.3366 16.8439C22.3311 16.1803 21.0837 15.5261 19.739 14.8208C19.1763 14.5257 18.5967 14.2216 18.0104 13.9042C16.1272 12.8844 14.1337 11.7037 12.9463 10.317C12.6141 9.92907 12.317 9.49345 12.1052 9.0112Z" fill="#E14503"/>
</g>
</svg>
