<svg width="41" height="40" viewBox="0 0 41 40" fill="none" xmlns="http://www.w3.org/2000/svg">
<g opacity="0.4">
<rect width="40" height="40" transform="translate(0.5)" fill="#F7F7F7"/>
<path d="M31.9625 17.5294C34.3756 17.5294 36.3489 19.4099 36.4918 21.7829L36.5 22.0588V32.7647C36.5 33.4469 35.9459 34 35.2625 34C34.636 34 34.1182 33.5352 34.0362 32.9324L34.025 32.7647V29.0588H5.975V32.7647C5.975 33.3901 5.50945 33.9069 4.90542 33.9888L4.7375 34C4.11099 34 3.59324 33.5352 3.5113 32.9324L3.5 32.7647V22.0588C3.5 19.65 5.3838 17.6803 7.76109 17.5376L8.0375 17.5294H31.9625ZM11.3375 6H28.6625C31.0756 6 33.0489 7.88045 33.1918 10.2535L33.2 10.5294V15.8824H28.25L28.2389 15.6903C28.151 14.9341 27.5499 14.3342 26.7924 14.2464L26.6 14.2353H23.3C22.4539 14.2353 21.7564 14.8711 21.6611 15.6903L21.65 15.8824H18.35L18.3389 15.6903C18.251 14.9341 17.6499 14.3342 16.8924 14.2464L16.7 14.2353H13.4C12.5538 14.2353 11.8564 14.8711 11.7611 15.6903L11.75 15.8824H6.8V10.5294C6.8 8.12054 8.6838 6.15087 11.0611 6.00827L11.3375 6Z" fill="#E14503"/>
</g>
</svg>
