<svg width="12" height="11" viewBox="0 0 12 11" fill="none" xmlns="http://www.w3.org/2000/svg">
<path d="M0 1.27778C0 0.9074 0.135139 0.601844 0.405405 0.361111C0.675672 0.120367 1.02703 0 1.45946 0C1.88417 0 2.2278 0.118511 2.49035 0.355556C2.76061 0.6 2.89575 0.918511 2.89575 1.31111C2.89575 1.66667 2.76448 1.96296 2.50193 2.2C2.23166 2.44444 1.87645 2.56667 1.43629 2.56667H1.42471C0.999996 2.56667 0.656375 2.44444 0.393822 2.2C0.13127 1.95556 0 1.64814 0 1.27778ZM0.150579 11V3.57778H2.72201V11H0.150579ZM4.14672 11H6.71815V6.85556C6.71815 6.59629 6.74904 6.39629 6.81081 6.25556C6.91891 6.0037 7.08301 5.79073 7.30309 5.61667C7.52317 5.44259 7.79922 5.35556 8.13127 5.35556C8.99614 5.35556 9.42857 5.91481 9.42857 7.03333V11H12V6.74444C12 5.64814 11.7297 4.81667 11.1892 4.25C10.6486 3.68333 9.93437 3.4 9.04633 3.4C8.05019 3.4 7.27413 3.81111 6.71815 4.63333V4.65556H6.70656L6.71815 4.63333V3.57778H4.14672C4.16216 3.81481 4.16988 4.55184 4.16988 5.78889C4.16988 7.02592 4.16216 8.76296 4.14672 11Z" fill="#FFF0E9"/>
</svg>
