<svg width="41" height="40" viewBox="0 0 41 40" fill="none" xmlns="http://www.w3.org/2000/svg">
<g opacity="0.4" clip-path="url(#clip0_795_247)">
<rect width="40" height="40" transform="translate(0.5)" fill="#F7F7F7"/>
<path d="M21.0206 5.42873C21.3933 3.81434 20.3868 2.203 18.7726 1.8297C17.1583 1.4564 15.5476 2.4625 15.1749 4.07689C14.8021 5.69128 15.8086 7.30262 17.4229 7.67592C19.0371 8.04922 20.6479 7.04311 21.0206 5.42873Z" fill="#E14503"/>
<path d="M16.0744 12.9516C15.9357 12.8567 15.8031 12.7621 15.6812 12.6693C14.5006 11.7738 13.8564 10.8837 13.6869 10.6324C13.2959 10.0312 13.4627 9.23719 14.0521 8.85223C14.2599 8.71628 14.5009 8.64402 14.7485 8.64402C15.1797 8.64402 15.5788 8.85965 15.8155 9.22057C15.8329 9.24563 15.8508 9.27108 15.8766 9.30549C15.9273 9.37314 16.0129 9.48288 16.1326 9.61959C16.2528 9.75746 16.4195 9.93447 16.6271 10.1285C16.7672 8.97936 16.2812 7.78113 15.3272 7.54274C14.9374 7.44528 14.4851 7.45948 14.0354 7.60234C13.5728 6.70632 10.6929 1.61361 6.76261 5.35717C4.72068 7.30191 6.56134 9.2904 7.15698 9.2904C7.75263 9.2904 3.07286 10.9104 4.94479 15.4293C6.81673 19.9485 10.634 19.3824 11.1445 18.2744C11.2041 18.1449 11.2903 17.9012 11.3955 17.5735C11.6812 18.2928 12.1649 19.809 12.1625 21.7684C12.1593 23.6789 11.7228 26.0079 10.1828 28.5762C9.7282 29.3325 9.97159 30.315 10.7268 30.7704C10.9843 30.9259 11.268 31 11.5484 31C12.0895 31 12.6171 30.7241 12.9166 30.2259C14.7727 27.143 15.3569 24.1791 15.3536 21.7683C15.3523 20.9118 15.2806 20.1261 15.1713 19.422L18.2807 21.247L19.337 26.8417C19.4817 27.6087 20.1511 28.1435 20.9028 28.1435C21.0012 28.1435 21.1008 28.1344 21.2009 28.1154C22.0666 27.9512 22.6356 27.1149 22.472 26.2474L21.2808 19.938C21.1949 19.4834 20.9179 19.0896 20.5195 18.8557L15.7797 16.0736C15.7665 15.0346 15.9006 13.9588 16.0744 12.9516ZM8.68841 7.69851C8.68841 7.10509 9.16829 6.62421 9.76049 6.62421C10.3528 6.62421 10.8326 7.10521 10.8326 7.69851C10.8326 8.29206 10.3527 8.77294 9.76049 8.77294C9.16829 8.77307 8.68841 8.29206 8.68841 7.69851ZM7.49712 7.17594C7.49712 6.15369 8.32377 5.32597 9.34352 5.32597C10.0969 5.32597 10.744 5.77832 11.0312 6.42649L10.8605 6.5994C10.5788 6.19948 10.1149 5.93729 9.58934 5.93729C8.72989 5.93729 8.03329 6.6361 8.03329 7.49657C8.03329 8.02988 8.30041 8.49976 8.70742 8.78087L8.614 8.87551C7.95722 8.5921 7.49712 7.93831 7.49712 7.17594Z" fill="#E14503"/>
<path d="M31.1976 24.619L24.9397 28.4899L17.4978 29.3315L12.1702 31.6882L6.96933 32.6981L0.5 38H40.5V21L31.1976 24.619Z" fill="#E14503"/>
<path d="M23.5 14.1491L25.7932 26L26.5 25.8741L24.2023 14C24.1134 14.037 24.0195 14.066 23.9201 14.0837C23.7798 14.1086 23.6399 14.1291 23.5 14.1491Z" fill="#E14503"/>
<path d="M23.4571 11.9081C23.4716 11.9081 23.4857 11.9099 23.5 11.9105L23.0712 9L22.5 9.13354L22.9222 12C23.0357 11.98 23.1496 11.9569 23.264 11.9302C23.3277 11.9153 23.3927 11.9081 23.4571 11.9081Z" fill="#E14503"/>
<path d="M15.7629 9.80795C15.6376 9.68037 15.546 9.57639 15.4885 9.50812C15.4598 9.47393 15.4397 9.44857 15.4281 9.43369C15.4233 9.42764 15.4199 9.42322 15.4182 9.42078C15.4173 9.4195 15.4171 9.4195 15.4171 9.4195C15.1011 8.99127 14.456 8.87101 13.9739 9.15142C13.4908 9.43218 13.3546 10.0085 13.6699 10.439L13.6696 10.4388C13.7154 10.4991 14.3544 11.3651 15.6554 12.2425C16.9497 13.117 18.9388 13.9999 21.5666 14H21.5744C22.2282 14 22.9194 13.9458 23.6451 13.8262C24.2123 13.7329 24.5872 13.2476 24.4825 12.7426C24.3776 12.2373 23.833 11.9032 23.266 11.9966C22.6617 12.0959 22.0989 12.139 21.5744 12.139C19.4742 12.1373 17.9509 11.4518 16.9146 10.7576C16.3993 10.4111 16.0137 10.0628 15.7629 9.80795Z" fill="#E14503"/>
</g>
<defs>
<clipPath id="clip0_795_247">
<rect width="40" height="40" fill="white" transform="translate(0.5)"/>
</clipPath>
</defs>
</svg>
