<svg width="24" height="24" viewBox="0 0 24 24" fill="none" xmlns="http://www.w3.org/2000/svg">
<rect width="24" height="24" rx="5" fill="#E14503"/>
<path fill-rule="evenodd" clip-rule="evenodd" d="M6 12C6 9.60324 6 8.40486 6.57113 7.5417C6.82616 7.15626 7.15626 6.82616 7.5417 6.57113C8.40486 6 9.60324 6 12 6C14.3968 6 15.5951 6 16.4583 6.57113C16.8437 6.82616 17.1738 7.15626 17.4289 7.5417C18 8.40486 18 9.60324 18 12C18 14.3968 18 15.5951 17.4289 16.4583C17.1738 16.8437 16.8437 17.1738 16.4583 17.4289C15.5951 18 14.3968 18 12 18C9.60324 18 8.40486 18 7.5417 17.4289C7.15626 17.1738 6.82616 16.8437 6.57113 16.4583C6 15.5951 6 14.3968 6 12ZM15 12C15 13.6569 13.6569 15 12 15C10.3431 15 9 13.6569 9 12C9 10.3431 10.3431 9 12 9C13.6569 9 15 10.3431 15 12ZM12 13.985C13.0963 13.985 13.985 13.0963 13.985 12C13.985 10.9037 13.0963 10.015 12 10.015C10.9037 10.015 10.015 10.9037 10.015 12C10.015 13.0963 10.9037 13.985 12 13.985ZM15.5 9C15.7761 9 16 8.77614 16 8.5C16 8.22386 15.7761 8 15.5 8C15.2239 8 15 8.22386 15 8.5C15 8.77614 15.2239 9 15.5 9Z" fill="#FFF0E9"/>
</svg>
