<svg width="12" height="10" viewBox="0 0 12 10" fill="none" xmlns="http://www.w3.org/2000/svg">
<path d="M8.01803 0.00221976V0H8.5807L8.78629 0.0421754C8.92336 0.0695561 9.04779 0.105438 9.1596 0.149834C9.27142 0.194229 9.37963 0.246027 9.48422 0.305216C9.58882 0.364406 9.68369 0.424717 9.76881 0.486127C9.85321 0.546804 9.92896 0.611176 9.99604 0.679245C10.0624 0.748058 10.1659 0.765816 10.3066 0.732519C10.4473 0.699223 10.5987 0.652974 10.761 0.593785C10.9234 0.534595 11.0839 0.468002 11.2426 0.394007C11.4013 0.320011 11.4979 0.27303 11.5326 0.253052C11.5665 0.232342 11.5845 0.221243 11.5867 0.219756L11.5888 0.216426L11.5996 0.210877L11.6105 0.205327L11.6213 0.199778L11.6321 0.194229L11.6343 0.190899L11.6375 0.188679L11.6408 0.186459L11.6429 0.18313L11.6537 0.1798L11.6646 0.17758L11.6624 0.194229L11.6592 0.210877L11.6537 0.227525L11.6483 0.244173L11.6429 0.255272L11.6375 0.266371L11.6321 0.283019C11.6285 0.294118 11.6249 0.308912 11.6213 0.327414C11.6177 0.345916 11.5834 0.4199 11.5185 0.54939C11.4536 0.678879 11.3724 0.810211 11.275 0.943396C11.1776 1.07658 11.0904 1.1772 11.0132 1.24528C10.9353 1.3141 10.8837 1.36219 10.8584 1.38957C10.8332 1.41768 10.8025 1.44357 10.7665 1.46726L10.7124 1.50388L10.7015 1.50943L10.6907 1.51498L10.6886 1.51831L10.6853 1.52053L10.6821 1.52275L10.6799 1.52608L10.6691 1.53163L10.6583 1.53718L10.6561 1.54051L10.6528 1.54273L10.6496 1.54495L10.6474 1.54828L10.6453 1.55161L10.642 1.55383L10.6388 1.55605L10.6366 1.55938H10.6907L10.9937 1.49279C11.1957 1.44839 11.3886 1.39475 11.5726 1.33185L11.8647 1.23196L11.8972 1.22087L11.9134 1.21532L11.9243 1.20977L11.9351 1.20422L11.9459 1.19867L11.9567 1.19312L11.9784 1.18979L12 1.18757V1.20977L11.9946 1.21199L11.9892 1.21532L11.987 1.21865L11.9838 1.22087L11.9805 1.22309L11.9784 1.22642L11.9762 1.22974L11.9729 1.23196L11.9697 1.23418L11.9675 1.23751L11.9654 1.24084L11.9621 1.24306L11.9567 1.25416L11.9513 1.26526L11.9481 1.26748C11.9466 1.2697 11.9008 1.33259 11.8106 1.45616C11.7205 1.58047 11.6718 1.64335 11.6646 1.64484C11.6574 1.64706 11.6472 1.65816 11.6343 1.67814C11.622 1.69885 11.5455 1.78135 11.4049 1.92564C11.2642 2.06992 11.1264 2.19829 10.9915 2.31077C10.8559 2.42397 10.7874 2.56307 10.7859 2.72808C10.7838 2.89234 10.7755 3.07807 10.761 3.28524C10.7466 3.49242 10.7196 3.71624 10.6799 3.95671C10.6402 4.19719 10.5789 4.46911 10.4959 4.77247C10.413 5.07584 10.312 5.37181 10.193 5.66038C10.0739 5.94895 9.9495 6.20791 9.81966 6.43729C9.68981 6.66667 9.57078 6.8609 9.46258 7.01998C9.35437 7.17906 9.24437 7.32889 9.13255 7.46948C9.02074 7.61007 8.87936 7.76841 8.7084 7.94451C8.53671 8.11987 8.44294 8.21606 8.42706 8.23307C8.41047 8.24936 8.33978 8.31003 8.21497 8.41509C8.0909 8.5209 7.95744 8.6267 7.81461 8.73252C7.6725 8.83759 7.54193 8.92527 7.4229 8.99556C7.30388 9.06585 7.16033 9.14613 6.99225 9.2364C6.82489 9.32741 6.64382 9.41176 6.44905 9.48946C6.25428 9.56715 6.04869 9.63929 5.83228 9.70588C5.61587 9.77247 5.40668 9.82427 5.20469 9.86127C5.00271 9.89826 4.77367 9.92971 4.51758 9.9556L4.13345 9.99445V10H3.43012V9.99445L3.33814 9.9889C3.27683 9.9852 3.22633 9.9815 3.18665 9.9778C3.14699 9.97411 2.99729 9.95375 2.7376 9.91676C2.47791 9.87977 2.27412 9.84276 2.12624 9.80577C1.97837 9.76878 1.75834 9.69848 1.46619 9.59489C1.17403 9.49131 0.924076 9.3866 0.716321 9.2808C0.509291 9.17573 0.379445 9.10913 0.326781 9.08102C0.274842 9.05364 0.216411 9.01961 0.151488 8.97891L0.0541028 8.91787L0.0519495 8.91454L0.0486925 8.91232L0.0454463 8.9101L0.0432822 8.90677L0.0324617 8.90122L0.0216411 8.89567L0.0194878 8.89234L0.0162308 8.89012L0.0129847 8.8879L0.0108206 8.88457L0.00866727 8.88124L0.00541028 8.87902H0V8.85683L0.0108206 8.85905L0.0216411 8.86238L0.0703336 8.86792C0.102795 8.87162 0.191167 8.87717 0.335437 8.88457C0.479719 8.89198 0.633003 8.89198 0.795311 8.88457C0.957619 8.87717 1.12354 8.86052 1.29306 8.83463C1.46258 8.80873 1.66276 8.76434 1.8936 8.70144C2.12444 8.63855 2.33653 8.56382 2.52986 8.47725C2.72246 8.38994 2.85952 8.32483 2.94104 8.28191C3.02183 8.23973 3.14518 8.1613 3.31109 8.04661L3.55996 7.87458L3.56213 7.87125L3.56537 7.86903L3.56863 7.86681L3.57078 7.86348L3.57295 7.86016L3.57619 7.85794L3.57945 7.85572L3.58161 7.85239L3.59243 7.84906L3.60325 7.84684L3.60541 7.83574L3.60866 7.82464L3.61191 7.82242L3.61407 7.81909L3.5275 7.81354C3.4698 7.80984 3.41389 7.80614 3.35978 7.80244C3.30568 7.79875 3.22092 7.7821 3.1055 7.7525C2.99009 7.7229 2.86565 7.6785 2.73219 7.61931C2.59874 7.56012 2.46889 7.48982 2.34265 7.40843C2.21642 7.32705 2.12516 7.25933 2.06889 7.20533C2.01335 7.15204 1.94121 7.07658 1.85248 6.97891C1.76448 6.88051 1.68801 6.7795 1.62308 6.67592C1.55816 6.57233 1.49613 6.45282 1.43698 6.31743L1.34716 6.11543L1.34175 6.09878L1.33634 6.08213L1.33309 6.07103L1.33093 6.05993L1.34716 6.06215L1.36339 6.06548L1.48242 6.08213C1.56177 6.09323 1.68621 6.09693 1.85573 6.09323C2.02525 6.08953 2.14247 6.08213 2.20739 6.07103C2.27232 6.05993 2.312 6.05253 2.32642 6.04883L2.34806 6.04328L2.37511 6.03774L2.40216 6.03219L2.40433 6.02886L2.40757 6.02664L2.41083 6.02442L2.41298 6.02109L2.39134 6.01554L2.3697 6.00999L2.34806 6.00444L2.32642 5.99889L2.30478 5.99334C2.29036 5.98964 2.26511 5.98224 2.22904 5.97114C2.19297 5.96004 2.09559 5.91934 1.93688 5.84906C1.77819 5.77877 1.65194 5.71032 1.55816 5.64373C1.46415 5.57694 1.3745 5.5039 1.28981 5.42508C1.20541 5.34517 1.11272 5.24232 1.01172 5.11654C0.910734 4.99075 0.820566 4.84462 0.741208 4.67814C0.661861 4.51165 0.602348 4.35257 0.562669 4.20089C0.52315 4.05009 0.497077 3.89593 0.484772 3.74029L0.465284 3.50721L0.476105 3.50943L0.486925 3.51276L0.497746 3.51831L0.508566 3.52386L0.519387 3.52941L0.530207 3.53496L0.697926 3.61265C0.809746 3.66445 0.948606 3.70885 1.11452 3.74584C1.28044 3.78283 1.37962 3.80319 1.41208 3.80688L1.46078 3.81243H1.55816L1.55601 3.8091L1.55275 3.80688L1.5495 3.80466L1.54734 3.80133L1.54519 3.798L1.54193 3.79578L1.53868 3.79356L1.53652 3.79023L1.5257 3.78468L1.51488 3.77913L1.51272 3.7758L1.50947 3.77358L1.50622 3.77136L1.50406 3.76804L1.49324 3.76249L1.48242 3.75694L1.48026 3.75361C1.4781 3.75212 1.44708 3.72845 1.3872 3.68257C1.32804 3.63596 1.26601 3.57566 1.20108 3.50166C1.13616 3.42767 1.07124 3.34998 1.00631 3.26859C0.941269 3.18702 0.883337 3.09974 0.833183 3.00777C0.782694 2.91528 0.729306 2.79762 0.673039 2.65483C0.617497 2.51276 0.575297 2.36959 0.546438 2.22531C0.517591 2.08102 0.50136 1.93859 0.497746 1.798C0.494142 1.65741 0.497746 1.53718 0.508566 1.43729C0.519387 1.3374 0.541028 1.22456 0.57349 1.09878C0.605951 0.972997 0.652848 0.839811 0.714157 0.699223L0.806132 0.488346L0.811542 0.471698L0.816952 0.45505L0.820209 0.45283L0.822362 0.449501L0.824527 0.446171L0.827773 0.443951L0.83103 0.446171L0.833183 0.449501L0.835347 0.45283L0.838593 0.45505L0.84185 0.45727L0.844004 0.460599L0.846168 0.463929L0.849414 0.466149L0.854824 0.477247L0.860234 0.488346L0.863491 0.490566L0.865645 0.493896L1.01172 0.660377C1.10911 0.771365 1.22453 0.895305 1.35798 1.03219C1.49144 1.16907 1.56538 1.2401 1.5798 1.24528C1.59424 1.2512 1.61226 1.26821 1.6339 1.29634C1.65555 1.32372 1.72769 1.3892 1.85032 1.49279C1.97296 1.59637 2.13346 1.71661 2.33183 1.8535C2.53021 1.99038 2.75023 2.12542 2.99188 2.2586C3.23355 2.39179 3.49324 2.51202 3.77096 2.61931C4.0487 2.7266 4.24347 2.79689 4.35528 2.83019C4.46709 2.86348 4.65825 2.90603 4.92876 2.95782C5.19928 3.00962 5.40307 3.04292 5.54013 3.05771C5.67719 3.07251 5.77097 3.08102 5.82146 3.08324L5.8972 3.08546L5.89505 3.06881L5.89179 3.05216L5.87015 2.91343C5.85573 2.82094 5.84851 2.69145 5.84851 2.52497C5.84851 2.35849 5.86114 2.20496 5.88638 2.06437C5.91164 1.92378 5.94951 1.78135 6 1.63707C6.0505 1.49279 6.09992 1.37698 6.14824 1.28968C6.1973 1.20311 6.2615 1.10433 6.34085 0.993341C6.42021 0.882353 6.523 0.767669 6.64923 0.649279C6.77548 0.530888 6.91975 0.425449 7.08206 0.332963C7.24436 0.240477 7.39406 0.170178 7.53111 0.122087C7.66817 0.0739956 7.7836 0.0425416 7.87737 0.0277469C7.97115 0.0129523 8.01803 0.00443951 8.01803 0.00221976Z" fill="#FFF0E9"/>
</svg>
