<svg width="13" height="9" viewBox="0 0 13 9" fill="none" xmlns="http://www.w3.org/2000/svg">
<path d="M6.78801 8.98821L4.12091 8.93939C3.25736 8.92238 2.39167 8.95634 1.54505 8.7801C0.257158 8.51678 0.165919 7.22567 0.070447 6.14267C-0.0611038 4.62011 -0.0101766 3.06992 0.238077 1.56007C0.378224 0.712886 0.92976 0.207365 1.78269 0.152355C4.66196 -0.047285 7.56038 -0.0236255 10.4333 0.0695138C10.7367 0.0780522 11.0422 0.12472 11.3414 0.17784C12.8182 0.436922 12.8542 1.90004 12.9499 3.13171C13.0454 4.37608 13.0051 5.62685 12.8226 6.86275C12.6762 7.88605 12.3961 8.74418 11.214 8.82702C9.73299 8.93535 8.28593 9.02256 6.80071 8.99479C6.80077 8.98821 6.79224 8.98821 6.78801 8.98821ZM5.22001 6.39751C6.33611 5.75616 7.43091 5.1255 8.54063 4.48845C7.42245 3.8471 6.32973 3.21644 5.22001 2.57939V6.39751Z" fill="#FFF0E9"/>
</svg>
